<?xml version="1.0" encoding="UTF-8" standalone="no"?>
<svg
   xmlns:dc="http://purl.org/dc/elements/1.1/"
   xmlns:cc="http://creativecommons.org/ns#"
   xmlns:rdf="http://www.w3.org/1999/02/22-rdf-syntax-ns#"
   xmlns:svg="http://www.w3.org/2000/svg"
   xmlns="http://www.w3.org/2000/svg"
   xmlns:sodipodi="http://sodipodi.sourceforge.net/DTD/sodipodi-0.dtd"
   xmlns:inkscape="http://www.inkscape.org/namespaces/inkscape"
   viewBox="-682 -313 632.06244 214.74434"
   width="632.06244"
   height="214.74434"
   version="1.1"
   id="svg290"
   sodipodi:docname="class.svg"
   inkscape:version="0.92.3 (2405546, 2018-03-11)">
  <metadata
     id="metadata296">
    <rdf:RDF>
      <cc:Work
         rdf:about="">
        <dc:format>image/svg+xml</dc:format>
        <dc:type
           rdf:resource="http://purl.org/dc/dcmitype/StillImage" />
      </cc:Work>
    </rdf:RDF>
  </metadata>
  <defs
     id="defs294" />
  <sodipodi:namedview
     pagecolor="#ffffff"
     bordercolor="#666666"
     borderopacity="1"
     objecttolerance="10"
     gridtolerance="10"
     guidetolerance="10"
     inkscape:pageopacity="0"
     inkscape:pageshadow="2"
     inkscape:window-width="1364"
     inkscape:window-height="730"
     id="namedview292"
     showgrid="false"
     inkscape:zoom="0.21847507"
     inkscape:cx="88.430276"
     inkscape:cy="131.12113"
     inkscape:window-x="0"
     inkscape:window-y="18"
     inkscape:window-maximized="0"
     inkscape:current-layer="svg290" />
  <path
     d="m -632.99278,-220.34791 -24.20683,-2.67156 m 0,-89.47341 v 89.47341 m 0,0 -24.29331,42.35233 m 48.50014,-129.15418 v 89.47341 m 0,0 -24.29331,42.35233"
     style="fill:none;stroke:#000000;stroke-width:1;stroke-linecap:round"
     id="path2"
     inkscape:connector-curvature="0" />
  <path
     d="m -632.99278,-220.34791 -24.20683,-2.67156 v -89.47341 z"
     style="fill:#eeeeee;fill-opacity:0.4"
     id="path4"
     inkscape:connector-curvature="0" />
  <path
     d="m -499.20928,-209.09779 -91.63685,-10.1134 m 0,-75.32054 v 75.32054 m 0,0 -20.4506,35.65305"
     style="fill:none;stroke:#000000;stroke-width:1;stroke-linecap:round"
     id="path6"
     inkscape:connector-curvature="0" />
  <path
     d="m -681.49292,-180.66714 24.29331,-42.35233 24.20683,2.67156 z m 48.50014,-129.15418 v 89.47341 l -24.20683,-92.14497 z"
     style="fill:#eeeeee;fill-opacity:0.4"
     id="path8"
     inkscape:connector-curvature="0" />
  <path
     d="m -501.46059,-221.61232 -91.63685,-10.1134 m 0,-6.12548 v 6.12548 m 0,0 -1.66315,2.8995 m -38.23219,-80.9951 -24.20683,-2.67156 m 0,0 -24.29331,42.35233 m 180.03233,42.40275 -91.63685,-10.1134 m 0,0 -1.66315,2.8995"
     style="fill:none;stroke:#000000;stroke-width:1;stroke-linecap:round"
     id="path10"
     inkscape:connector-curvature="0" />
  <path
     d="m -499.20928,-209.09779 -91.63685,-10.1134 v -75.32054 z"
     style="fill:#eeeeee;fill-opacity:0.4"
     id="path12"
     inkscape:connector-curvature="0" />
  <path
     d="m -593.09744,-237.8512 v 6.12548 l -1.66315,-3.22598 z"
     style="fill:#99ddff;fill-opacity:0.4"
     id="path14"
     inkscape:connector-curvature="0" />
  <path
     d="m -499.20928,-284.41833 v 75.32054 m 0,0 -20.4506,35.65305"
     style="fill:none;stroke:#000000;stroke-width:1;stroke-linecap:round"
     id="path16"
     inkscape:connector-curvature="0" />
  <path
     d="m -593.09744,-231.72572 -1.66315,2.8995 v -6.12548 z"
     style="fill:#99ddff;fill-opacity:0.4"
     id="path18"
     inkscape:connector-curvature="0" />
  <path
     d="m -594.76059,-234.9517 v 6.12548 m 0,0 91.63684,10.1134"
     style="fill:none;stroke:#000000;stroke-width:1;stroke-linecap:round"
     id="path20"
     inkscape:connector-curvature="0" />
  <path
     d="m -657.28609,-177.99558 24.29331,-42.35233 v -89.47341 z"
     style="fill:#eeeeee;fill-opacity:0.4"
     id="path22"
     inkscape:connector-curvature="0" />
  <path
     d="m -632.99278,-309.82132 -24.29331,42.35232"
     style="fill:none;stroke:#000000;stroke-width:1;stroke-linecap:round"
     id="path24"
     inkscape:connector-curvature="0" />
  <path
     d="m -501.46059,-221.61232 -91.63685,-10.1134 v -6.12548 z m -93.3,-7.2139 1.66315,-2.8995 91.63685,10.1134 z"
     style="fill:#99ddff;fill-opacity:0.4"
     id="path26"
     inkscape:connector-curvature="0" />
  <path
     d="m -594.76059,-234.9517 91.63684,10.1134 m -141.36215,-3.37921 -24.20683,-2.67156 m 0,-6.12548 v 6.12548 m 0,0 -1.66315,2.89951"
     style="fill:none;stroke:#000000;stroke-width:1;stroke-linecap:round"
     id="path28"
     inkscape:connector-curvature="0" />
  <path
     d="m -594.76059,-234.9517 91.63684,10.1134 -89.97369,-13.0129 z m 0,0 v 6.12548 l 91.63684,3.98792 z"
     style="fill:#99ddff;fill-opacity:0.4"
     id="path30"
     inkscape:connector-curvature="0" />
  <path
     d="m -611.29673,-183.55814 20.4506,-35.65305 91.63685,10.1134 z"
     style="fill:#eeeeee;fill-opacity:0.4"
     id="path32"
     inkscape:connector-curvature="0" />
  <path
     d="m -644.4859,-228.21751 -24.20683,-2.67156 v -6.12548 z m 143.02531,0.47971 v 6.12548 l -91.63685,-16.23888 z"
     style="fill:#99ddff;fill-opacity:0.4"
     id="path34"
     inkscape:connector-curvature="0" />
  <path
     d="m -644.4859,-234.34299 -24.20683,-2.67156 m 0,0 -1.66315,2.8995"
     style="fill:none;stroke:#000000;stroke-width:1;stroke-linecap:round"
     id="path36"
     inkscape:connector-curvature="0" />
  <path
     d="m -657.19961,-312.49288 v 89.47341 l -24.29331,-47.12108 z"
     style="fill:#eeeeee;fill-opacity:0.4"
     id="path38"
     inkscape:connector-curvature="0" />
  <path
     d="m -670.35588,-227.98956 1.66315,-2.89951 24.20683,2.67156 z m 1.66315,-9.02499 v 6.12548 l -1.66315,-3.22598 z m 165.56898,18.30173 -91.63684,-10.1134 93.3,7.2139 z m -165.56898,-12.17625 -1.66315,2.89951 v -6.12549 z"
     style="fill:#99ddff;fill-opacity:0.4"
     id="path40"
     inkscape:connector-curvature="0" />
  <path
     d="m -644.4859,-234.34299 v 6.12548 m 0,0 -1.66315,2.8995 m 1.66316,-9.02498 v 6.12548 m 0,0 -1.66316,2.8995 m 1.66316,-2.8995 43.26459,1.02368"
     style="fill:none;stroke:#000000;stroke-width:1;stroke-linecap:round"
     id="path42"
     inkscape:connector-curvature="0" />
  <path
     d="m -644.4859,-234.34299 v 6.12548 l -24.20683,-8.79704 z m 141.36215,9.50469 1.66316,-2.8995 -91.63685,-10.1134 z"
     style="fill:#99ddff;fill-opacity:0.4"
     id="path44"
     inkscape:connector-curvature="0" />
  <path
     d="m -670.35588,-234.11505 v 6.12549 m 0,0 24.20683,2.67155"
     style="fill:none;stroke:#000000;stroke-width:1;stroke-linecap:round"
     id="path46"
     inkscape:connector-curvature="0" />
  <path
     d="m -657.28609,-177.99558 -24.20683,-2.67156 48.50014,-39.68077 z"
     style="fill:#eeeeee;fill-opacity:0.4"
     id="path48"
     inkscape:connector-curvature="0" />
  <path
     d="m -646.14905,-225.31801 -24.20683,-2.67155 25.86998,-0.22795 z"
     style="fill:#99ddff;fill-opacity:0.4"
     id="path50"
     inkscape:connector-curvature="0" />
  <path
     d="m -499.20928,-284.41833 -91.63685,-10.1134 m 0,0 -20.4506,35.65305 m 109.83614,31.14088 v 6.12548 m 0,0 -1.66316,2.8995 m 1.66316,-2.8995 41.89436,2.17832 m -41.89436,-8.3038 v 6.12548 m 0,0 -1.66316,2.8995"
     style="fill:none;stroke:#000000;stroke-width:1;stroke-linecap:round"
     id="path52"
     inkscape:connector-curvature="0" />
  <path
     d="m -594.76059,-228.82622 91.63684,10.1134 v -6.12548 z"
     style="fill:#99ddff;fill-opacity:0.4"
     id="path54"
     inkscape:connector-curvature="0" />
  <path
     d="m -644.4859,-234.34299 v 6.12548 l -1.66315,2.8995 z"
     style="fill:#ffbbbb;fill-opacity:0.4"
     id="path56"
     inkscape:connector-curvature="0" />
  <path
     d="m -646.14905,-225.31801 1.66315,-2.8995 v -6.12548 z"
     style="fill:#99ddff;fill-opacity:0.4"
     id="path58"
     inkscape:connector-curvature="0" />
  <path
     d="m -644.4859,-234.34299 -1.66315,2.8995 m 1.66316,-2.8995 -1.66316,2.8995 m 1.66316,-2.8995 43.26459,7.14916"
     style="fill:none;stroke:#000000;stroke-width:1;stroke-linecap:round"
     id="path60"
     inkscape:connector-curvature="0" />
  <path
     d="m -646.14905,-231.44349 1.66315,-2.8995 -24.20683,-2.67156 z m -24.20683,-2.67156 24.20683,2.67156 -22.54368,-5.57106 z"
     style="fill:#99ddff;fill-opacity:0.4"
     id="path62"
     inkscape:connector-curvature="0" />
  <path
     d="m -670.35588,-234.11505 24.20683,2.67156"
     style="fill:none;stroke:#000000;stroke-width:1;stroke-linecap:round"
     id="path64"
     inkscape:connector-curvature="0" />
  <path
     d="m -499.20928,-284.41833 v 75.32054 l -91.63685,-85.43394 z"
     style="fill:#eeeeee;fill-opacity:0.4"
     id="path66"
     inkscape:connector-curvature="0" />
  <path
     d="m -670.35588,-234.11505 v 6.12549 l 24.20683,-3.45393 z m 0,6.12549 24.20683,2.67155 v -6.12548 z m 167.23213,9.27674 1.66316,-2.8995 v -6.12548 z"
     style="fill:#99ddff;fill-opacity:0.4"
     id="path68"
     inkscape:connector-curvature="0" />
  <path
     d="m -501.46059,-227.7378 v 6.12548 l -1.66316,2.8995 z"
     style="fill:#ffbbbb;fill-opacity:0.4"
     id="path70"
     inkscape:connector-curvature="0" />
  <path
     d="m -501.46059,-227.7378 -1.66316,2.8995 m 1.66316,-2.8995 41.89436,8.3038 m -41.89436,-8.3038 -1.66316,2.8995 m -143.0253,-6.60519 v 6.12548 m 0,0 v -6.12548 m 0,6.12548 44.92775,-1.87582"
     style="fill:none;stroke:#000000;stroke-width:1;stroke-linecap:round"
     id="path72"
     inkscape:connector-curvature="0" />
  <path
     d="m -644.4859,-234.34299 -1.66315,9.02498 v -6.12548 z"
     style="fill:#ffbbbb;fill-opacity:0.4"
     id="path74"
     inkscape:connector-curvature="0" />
  <path
     d="m -646.14905,-231.44349 v 6.12548 l 1.66315,-9.02498 z"
     style="fill:#99ddff;fill-opacity:0.4"
     id="path76"
     inkscape:connector-curvature="0" />
  <path
     d="m -644.4859,-228.21751 v -6.12548 l 43.26459,7.14916 z"
     style="fill:#ffbbbb;fill-opacity:0.4"
     id="path78"
     inkscape:connector-curvature="0" />
  <path
     d="m -365.42577,-197.84767 -91.63685,-10.1134 m 0,-61.16768 v 61.16768 m 0,0 -16.6079,28.95378"
     style="fill:none;stroke:#000000;stroke-width:1;stroke-linecap:round"
     id="path80"
     inkscape:connector-curvature="0" />
  <path
     d="m -646.14905,-225.31801 1.66315,-2.8995 43.26459,1.02368 z"
     style="fill:#ffbbbb;fill-opacity:0.4"
     id="path82"
     inkscape:connector-curvature="0" />
  <path
     d="m -503.12375,-218.71282 v -6.12548 m 0,6.12548 43.55752,-0.72118 m -43.55752,-5.4043 v 6.12548"
     style="fill:none;stroke:#000000;stroke-width:1;stroke-linecap:round"
     id="path84"
     inkscape:connector-curvature="0" />
  <path
     d="m -503.12375,-224.8383 v 6.12548 l 1.66316,-9.02498 z"
     style="fill:#99ddff;fill-opacity:0.4"
     id="path86"
     inkscape:connector-curvature="0" />
  <path
     d="m -501.46059,-227.7378 -1.66316,9.02498 v -6.12548 z"
     style="fill:#ffbbbb;fill-opacity:0.4"
     id="path88"
     inkscape:connector-curvature="0" />
  <path
     d="m -646.14905,-231.44349 44.92775,4.24966"
     style="fill:none;stroke:#000000;stroke-width:1;stroke-linecap:round"
     id="path90"
     inkscape:connector-curvature="0" />
  <path
     d="m -644.4859,-234.34299 -1.66315,2.8995 44.92774,4.24966 z m -1.66315,2.8995 v 6.12548 l 44.92774,-1.87582 z m 144.68846,9.83117 v -6.12548 l 41.89436,8.3038 z"
     style="fill:#ffbbbb;fill-opacity:0.4"
     id="path92"
     inkscape:connector-curvature="0" />
  <path
     d="m -503.12375,-224.8383 43.55752,5.4043"
     style="fill:none;stroke:#000000;stroke-width:1;stroke-linecap:round"
     id="path94"
     inkscape:connector-curvature="0" />
  <path
     d="m -503.12375,-218.71282 1.66316,-2.8995 41.89436,2.17832 z"
     style="fill:#ffbbbb;fill-opacity:0.4"
     id="path96"
     inkscape:connector-curvature="0" />
  <path
     d="m -657.19961,-223.01947 -24.29331,42.35233 v -89.47341 z"
     style="fill:#eeeeee;fill-opacity:0.4"
     id="path98"
     inkscape:connector-curvature="0" />
  <path
     d="m -501.46059,-227.7378 -1.66316,2.8995 43.55752,5.4043 z m -1.66316,2.8995 v 6.12548 l 43.55752,-0.72118 z"
     style="fill:#ffbbbb;fill-opacity:0.4"
     id="path100"
     inkscape:connector-curvature="0" />
  <path
     d="m -590.84613,-294.53173 v 75.32054 l -20.4506,-39.66749 z m -66.43996,27.06273 24.29331,-42.35232 -24.20683,-2.67156 z m 137.62621,94.02426 20.4506,-35.65305 v -75.32054 z"
     style="fill:#eeeeee;fill-opacity:0.4"
     id="path102"
     inkscape:connector-curvature="0" />
  <path
     d="m -499.20928,-284.41833 -20.4506,35.65305"
     style="fill:none;stroke:#000000;stroke-width:1;stroke-linecap:round"
     id="path104"
     inkscape:connector-curvature="0" />
  <path
     d="m -365.42577,-197.84767 -91.63685,-10.1134 v -61.16768 z m -225.42036,-21.36352 -20.4506,35.65305 v -75.32054 z"
     style="fill:#eeeeee;fill-opacity:0.4"
     id="path106"
     inkscape:connector-curvature="0" />
  <path
     d="m -681.49292,-270.14055 v 89.47341 m 0,0 24.20683,2.67156 m 291.86032,-81.01977 v 61.16768 m 0,0 -16.6079,28.95378 m 12.4541,-35.09186 -91.63685,-10.1134 m 0,-6.12548 v 6.12548 m 0,0 -1.66316,2.8995"
     style="fill:none;stroke:#000000;stroke-width:1;stroke-linecap:round"
     id="path108"
     inkscape:connector-curvature="0" />
  <path
     d="m -519.65988,-173.44474 -91.63685,-10.1134 112.08745,-25.53965 z"
     style="fill:#eeeeee;fill-opacity:0.4"
     id="path110"
     inkscape:connector-curvature="0" />
  <path
     d="m -369.57957,-210.11123 -91.63685,-10.1134 m 0,0 -1.66316,2.8995"
     style="fill:none;stroke:#000000;stroke-width:1;stroke-linecap:round"
     id="path112"
     inkscape:connector-curvature="0" />
  <path
     d="m -461.21642,-220.22463 v 6.12548 l -1.66316,-3.22598 z"
     style="fill:#99ddff;fill-opacity:0.4"
     id="path114"
     inkscape:connector-curvature="0" />
  <path
     d="m -657.28609,-267.469 v 89.47342"
     style="fill:none;stroke:#000000;stroke-width:1;stroke-linecap:round"
     id="path116"
     inkscape:connector-curvature="0" />
  <path
     d="m -657.28609,-267.469 v 89.47342 l 24.29331,-131.82574 z"
     style="fill:#eeeeee;fill-opacity:0.4"
     id="path118"
     inkscape:connector-curvature="0" />
  <path
     d="m -461.21642,-214.09915 -1.66316,2.8995 v -6.12548 z"
     style="fill:#99ddff;fill-opacity:0.4"
     id="path120"
     inkscape:connector-curvature="0" />
  <path
     d="m -473.67052,-179.00729 16.6079,-28.95378 91.63685,10.1134 z"
     style="fill:#eeeeee;fill-opacity:0.4"
     id="path122"
     inkscape:connector-curvature="0" />
  <path
     d="m -462.87958,-217.32513 v 6.12548 m 0,0 91.63685,10.1134"
     style="fill:none;stroke:#000000;stroke-width:1;stroke-linecap:round"
     id="path124"
     inkscape:connector-curvature="0" />
  <path
     d="m -369.57957,-203.98575 -91.63685,-10.1134 v -6.12548 z"
     style="fill:#99ddff;fill-opacity:0.4"
     id="path126"
     inkscape:connector-curvature="0" />
  <path
     d="m -365.42577,-259.01535 -91.63685,-10.1134 m 0,0 -16.6079,28.95378"
     style="fill:none;stroke:#000000;stroke-width:1;stroke-linecap:round"
     id="path128"
     inkscape:connector-curvature="0" />
  <path
     d="m -462.87958,-211.19965 1.66316,-2.8995 91.63685,10.1134 z"
     style="fill:#99ddff;fill-opacity:0.4"
     id="path130"
     inkscape:connector-curvature="0" />
  <path
     d="m -462.87958,-217.32513 91.63685,10.1134 m -240.054,-51.66695 v 75.32054 m 0,0 91.63685,10.1134"
     style="fill:none;stroke:#000000;stroke-width:1;stroke-linecap:round"
     id="path132"
     inkscape:connector-curvature="0" />
  <path
     d="m -365.42577,-259.01535 v 61.16768 l -91.63685,-71.28108 z m -154.23411,10.25007 20.4506,-35.65305 -91.63685,-10.1134 z"
     style="fill:#eeeeee;fill-opacity:0.4"
     id="path134"
     inkscape:connector-curvature="0" />
  <path
     d="m -462.87958,-217.32513 91.63685,10.1134 -89.97369,-13.0129 z m 0,0 v 6.12548 l 91.63685,3.98792 z"
     style="fill:#99ddff;fill-opacity:0.4"
     id="path136"
     inkscape:connector-curvature="0" />
  <path
     d="m -681.49292,-270.14055 24.20683,2.67155 0.0865,-45.02388 z"
     style="fill:#eeeeee;fill-opacity:0.4"
     id="path138"
     inkscape:connector-curvature="0" />
  <path
     d="m -369.57957,-210.11123 v 6.12548 l -91.63685,-16.23888 z"
     style="fill:#99ddff;fill-opacity:0.4"
     id="path140"
     inkscape:connector-curvature="0" />
  <path
     d="m -681.49292,-180.66714 24.20683,2.67156 V -267.469 Z"
     style="fill:#eeeeee;fill-opacity:0.4"
     id="path142"
     inkscape:connector-curvature="0" />
  <path
     d="m -371.24273,-201.08625 -91.63685,-10.1134 93.30001,7.2139 z"
     style="fill:#99ddff;fill-opacity:0.4"
     id="path144"
     inkscape:connector-curvature="0" />
  <path
     d="m -457.06262,-269.12875 v 61.16768 l -16.6079,-32.2139 z"
     style="fill:#eeeeee;fill-opacity:0.4"
     id="path146"
     inkscape:connector-curvature="0" />
  <path
     d="m -371.24273,-207.21173 1.66316,-2.8995 -91.63685,-10.1134 z"
     style="fill:#99ddff;fill-opacity:0.4"
     id="path148"
     inkscape:connector-curvature="0" />
  <path
     d="m -231.64227,-186.59755 -91.63684,-10.1134 m 0,-47.01481 v 47.01481 m 0,0 -12.76519,22.2545 m -33.53527,-35.65478 v 6.12548 m 0,0 -1.66316,2.8995 m 1.66316,-9.02498 v 6.12548 m 0,0 -1.66315,2.8995 m 1.66315,-2.8995 42.46859,1.31716"
     style="fill:none;stroke:#000000;stroke-width:1;stroke-linecap:round"
     id="path150"
     inkscape:connector-curvature="0" />
  <path
     d="m -462.87958,-211.19965 91.63685,10.1134 v -6.12548 z m 91.63685,10.1134 1.66316,-2.8995 v -6.12548 z"
     style="fill:#99ddff;fill-opacity:0.4"
     id="path152"
     inkscape:connector-curvature="0" />
  <path
     d="m -369.57957,-210.11123 v 6.12548 l -1.66316,2.8995 z"
     style="fill:#ffbbbb;fill-opacity:0.4"
     id="path154"
     inkscape:connector-curvature="0" />
  <path
     d="m -369.57957,-210.11123 -1.66316,2.8995 m 1.66316,-2.8995 -1.66315,2.8995 m 1.66315,-2.8995 42.46859,7.44264 m -44.13175,-4.54314 v 6.12548 m 10e-6,0 v -6.12548 m 0,6.12548 44.13174,-1.58234"
     style="fill:none;stroke:#000000;stroke-width:1;stroke-linecap:round"
     id="path156"
     inkscape:connector-curvature="0" />
  <path
     d="m -371.24273,-207.21173 v 6.12548 l 1.66316,-9.02498 z"
     style="fill:#99ddff;fill-opacity:0.4"
     id="path158"
     inkscape:connector-curvature="0" />
  <path
     d="m -369.57957,-210.11123 -1.66316,9.02498 v -6.12548 z m 0,6.12548 v -6.12548 l 42.46859,7.44264 z"
     style="fill:#ffbbbb;fill-opacity:0.4"
     id="path160"
     inkscape:connector-curvature="0" />
  <path
     d="m -457.06262,-207.96107 -16.6079,28.95378 v -61.16768 z"
     style="fill:#eeeeee;fill-opacity:0.4"
     id="path162"
     inkscape:connector-curvature="0" />
  <path
     d="m -371.24273,-201.08625 1.66316,-2.8995 42.46859,1.31716 z"
     style="fill:#ffbbbb;fill-opacity:0.4"
     id="path164"
     inkscape:connector-curvature="0" />
  <path
     d="m -382.03367,-168.89389 16.6079,-28.95378 v -61.16768 z"
     style="fill:#eeeeee;fill-opacity:0.4"
     id="path166"
     inkscape:connector-curvature="0" />
  <path
     d="m -365.42577,-259.01535 -16.6079,28.95378"
     style="fill:none;stroke:#000000;stroke-width:1;stroke-linecap:round"
     id="path168"
     inkscape:connector-curvature="0" />
  <path
     d="m -681.49292,-270.14055 v 89.47341 l 24.20683,-86.80186 z"
     style="fill:#eeeeee;fill-opacity:0.4"
     id="path170"
     inkscape:connector-curvature="0" />
  <path
     d="m -371.24272,-207.21173 44.13174,4.54314"
     style="fill:none;stroke:#000000;stroke-width:1;stroke-linecap:round"
     id="path172"
     inkscape:connector-curvature="0" />
  <path
     d="m -611.29673,-258.87868 91.63685,10.1134 -71.18625,-45.76645 z"
     style="fill:#eeeeee;fill-opacity:0.4"
     id="path174"
     inkscape:connector-curvature="0" />
  <path
     d="m -369.57957,-210.11123 -1.66316,2.8995 44.13175,4.54314 z"
     style="fill:#ffbbbb;fill-opacity:0.4"
     id="path176"
     inkscape:connector-curvature="0" />
  <path
     d="m -519.65988,-248.76528 v 75.32054"
     style="fill:none;stroke:#000000;stroke-width:1;stroke-linecap:round"
     id="path178"
     inkscape:connector-curvature="0" />
  <path
     d="m -519.65988,-248.76528 v 75.32054 l 20.4506,-110.97359 z"
     style="fill:#eeeeee;fill-opacity:0.4"
     id="path180"
     inkscape:connector-curvature="0" />
  <path
     d="m -371.24273,-207.21173 v 6.12548 l 44.13175,-1.58234 z"
     style="fill:#ffbbbb;fill-opacity:0.4"
     id="path182"
     inkscape:connector-curvature="0" />
  <path
     d="m -382.03367,-168.89389 -91.63685,-10.1134 108.24475,-18.84038 z m 150.3914,-17.70366 -91.63684,-10.1134 v -47.01481 z"
     style="fill:#eeeeee;fill-opacity:0.4"
     id="path184"
     inkscape:connector-curvature="0" />
  <path
     d="m -169.12629,-105.46207 -15.27281,-1.68556 m 0,-178.94682 v 178.94682 m 0,0 -3.8427,6.69927"
     style="fill:none;stroke:#000000;stroke-width:1;stroke-linecap:round"
     id="path186"
     inkscape:connector-curvature="0" />
  <path
     d="m -611.29673,-183.55814 91.63685,10.1134 v -75.32054 z"
     style="fill:#eeeeee;fill-opacity:0.4"
     id="path188"
     inkscape:connector-curvature="0" />
  <path
     d="m -473.67052,-240.17497 v 61.16768 m 0,0 91.63685,10.1134 m 212.90738,-115.515 v 178.94682 m 0,0 -3.8427,6.699284 m -58.67328,-134.849574 v 47.01481 m 0,0 -12.76519,22.2545"
     style="fill:none;stroke:#000000;stroke-width:1;stroke-linecap:round"
     id="path190"
     inkscape:connector-curvature="0" />
  <path
     d="m -188.2418,-100.44836 3.8427,-6.69927 15.27281,1.68556 z m -147.8025,-74.00809 12.76519,-22.2545 91.63684,10.1134 z m -45.98937,-55.60512 16.6079,-28.95378 -91.63685,-10.1134 z m -229.26306,-28.81711 v 75.32054 l 91.63685,-65.20714 z"
     style="fill:#eeeeee;fill-opacity:0.4"
     id="path192"
     inkscape:connector-curvature="0" />
  <path
     d="m -681.49292,-270.14055 24.20683,2.67155 m 425.64382,33.85664 -91.63684,-10.1134 m 0,0 -12.76519,22.25451"
     style="fill:none;stroke:#000000;stroke-width:1;stroke-linecap:round"
     id="path194"
     inkscape:connector-curvature="0" />
  <path
     d="m -172.96899,-98.762786 -15.27281,-1.685574 19.11551,-5.01371 z"
     style="fill:#eeeeee;fill-opacity:0.4"
     id="path196"
     inkscape:connector-curvature="0" />
  <path
     d="m -611.29673,-258.87868 91.63685,10.1134"
     style="fill:none;stroke:#000000;stroke-width:1;stroke-linecap:round"
     id="path198"
     inkscape:connector-curvature="0" />
  <path
     d="m -231.64227,-233.61236 v 47.01481 l -91.63684,-57.12821 z"
     style="fill:#eeeeee;fill-opacity:0.4"
     id="path200"
     inkscape:connector-curvature="0" />
  <path
     d="m -188.2418,-279.39518 v 178.94682 m 0,0 15.27281,1.685574"
     style="fill:none;stroke:#000000;stroke-width:1;stroke-linecap:round"
     id="path202"
     inkscape:connector-curvature="0" />
  <path
     d="m -323.27911,-243.72576 v 47.01481 l -12.76519,-24.7603 z"
     style="fill:#eeeeee;fill-opacity:0.4"
     id="path204"
     inkscape:connector-curvature="0" />
  <path
     d="m -172.96899,-277.70961 v 178.946824 m 63.18352,-11.782834 -15.27281,-1.68557 m 0,-155.68154 v 155.68154 m 0,0 -3.8427,6.69928"
     style="fill:none;stroke:#000000;stroke-width:1;stroke-linecap:round"
     id="path206"
     inkscape:connector-curvature="0" />
  <path
     d="m -473.67052,-240.17497 91.63685,10.1134 -75.02895,-39.06718 z m 150.39141,43.46402 -12.76519,22.2545 v -47.0148 z"
     style="fill:#eeeeee;fill-opacity:0.4"
     id="path208"
     inkscape:connector-curvature="0" />
  <path
     d="m -109.78547,-266.22716 v 155.68154 m 0,0 -3.84271,6.69927 m -268.40549,-126.21522 v 61.16768"
     style="fill:none;stroke:#000000;stroke-width:1;stroke-linecap:round"
     id="path210"
     inkscape:connector-curvature="0" />
  <path
     d="m -382.03367,-230.06157 v 61.16768 l 16.6079,-90.12146 z m 253.13269,124.52966 3.8427,-6.69928 15.27281,1.68557 z m -344.76954,-73.47538 91.63685,10.1134 v -61.16768 z m 229.26306,14.66424 12.76519,-22.2545 v -47.01481 z"
     style="fill:#eeeeee;fill-opacity:0.4"
     id="path212"
     inkscape:connector-curvature="0" />
  <path
     d="m -231.64227,-233.61236 -12.76519,22.2545"
     style="fill:none;stroke:#000000;stroke-width:1;stroke-linecap:round"
     id="path214"
     inkscape:connector-curvature="0" />
  <path
     d="m -244.40746,-164.34305 -91.63684,-10.1134 104.40203,-12.1411 z m -229.26306,-75.83192 v 61.16768 l 91.63685,-51.05428 z"
     style="fill:#eeeeee;fill-opacity:0.4"
     id="path216"
     inkscape:connector-curvature="0" />
  <path
     d="m -336.0443,-221.47125 v 47.0148 m 0,0 91.63684,10.1134"
     style="fill:none;stroke:#000000;stroke-width:1;stroke-linecap:round"
     id="path218"
     inkscape:connector-curvature="0" />
  <path
     d="m -169.12629,-105.46207 -15.27281,-1.68556 v -178.94682 z m 55.49811,1.61572 -15.2728,-1.68556 19.11551,-5.01371 z"
     style="fill:#eeeeee;fill-opacity:0.4"
     id="path220"
     inkscape:connector-curvature="0" />
  <path
     d="m -473.67052,-240.17497 91.63685,10.1134 m 253.13269,-31.15189 v 155.68155 m 0,0 15.2728,1.68556"
     style="fill:none;stroke:#000000;stroke-width:1;stroke-linecap:round"
     id="path222"
     inkscape:connector-curvature="0" />
  <path
     d="m -244.40746,-211.35786 12.76519,-22.2545 -91.63684,-10.1134 z"
     style="fill:#eeeeee;fill-opacity:0.4"
     id="path224"
     inkscape:connector-curvature="0" />
  <path
     d="m -113.62818,-259.52789 v 155.68154"
     style="fill:none;stroke:#000000;stroke-width:1;stroke-linecap:round"
     id="path226"
     inkscape:connector-curvature="0" />
  <path
     d="m -172.96899,-98.762786 3.8427,-6.699284 v -178.94682 z m -11.43011,-8.384844 -3.8427,6.69927 v -178.94682 z"
     style="fill:#eeeeee;fill-opacity:0.4"
     id="path228"
     inkscape:connector-curvature="0" />
  <path
     d="m -228.18506,-197.89174 24.97187,2.75599"
     style="fill:none;stroke:#000000;stroke-width:1;stroke-linecap:round"
     id="path230"
     inkscape:connector-curvature="0" />
  <path
     d="m -336.0443,-221.47125 91.63684,10.11339 -78.87165,-32.3679 z m 147.8025,121.02289 15.27281,1.685574 V -277.70961 Z m 78.45633,-10.09726 -15.27281,-1.68557 v -155.68154 z"
     style="fill:#eeeeee;fill-opacity:0.4"
     id="path232"
     inkscape:connector-curvature="0" />
  <path
     d="m -204.53132,-191.26036 1.31813,1.22918 14.68934,-3.4834 z m 2.13278,-9.42531 -1.62929,2.84047 15.50398,4.33062 z"
     style="fill:#000000"
     id="path234"
     inkscape:connector-curvature="0" />
  <path
     d="m -244.40746,-211.35786 v 47.01481"
     style="fill:none;stroke:#000000;stroke-width:1;stroke-linecap:round"
     id="path236"
     inkscape:connector-curvature="0" />
  <path
     d="m -244.40746,-211.35786 v 47.01481 l 12.76519,-69.26931 z"
     style="fill:#eeeeee;fill-opacity:0.4"
     id="path238"
     inkscape:connector-curvature="0" />
  <path
     d="m -204.02783,-197.8452 -0.50349,6.58484 16.00747,-2.25422 z"
     style="fill:#000000"
     id="path240"
     inkscape:connector-curvature="0" />
  <path
     d="m -336.0443,-174.45645 91.63684,10.1134 v -47.01481 z m 0,-47.0148 v 47.0148 l 91.63684,-36.90141 z"
     style="fill:#eeeeee;fill-opacity:0.4"
     id="path242"
     inkscape:connector-curvature="0" />
  <path
     d="m -336.0443,-221.47125 91.63684,10.11339"
     style="fill:none;stroke:#000000;stroke-width:1;stroke-linecap:round"
     id="path244"
     inkscape:connector-curvature="0" />
  <path
     d="m -113.62818,-103.84635 3.84271,-6.69927 v -155.68154 z m -11.4301,-8.38484 -3.8427,6.69928 v -155.68155 z"
     style="fill:#eeeeee;fill-opacity:0.4"
     id="path246"
     inkscape:connector-curvature="0" />
  <path
     d="m -50.444652,-147.46013 -15.27281,-1.68556 m 0,-68.75436 v 68.75436 m 0,0 -3.84271,6.69927 m -99.284068,-48.89624 24.97187,2.75599 m 93.427718,-27.62782 v 68.75436 m 0,0 -3.84271,6.69928"
     style="fill:none;stroke:#000000;stroke-width:1;stroke-linecap:round"
     id="path248"
     inkscape:connector-curvature="0" />
  <path
     d="m -69.560172,-142.44642 3.84271,-6.69927 15.27281,1.68556 z m -59.340808,36.91451 15.2728,1.68556 v -155.68154 z m -40.22531,-178.87698 v 178.94682 l -15.27281,-180.63238 z"
     style="fill:#eeeeee;fill-opacity:0.4"
     id="path250"
     inkscape:connector-curvature="0" />
  <path
     d="m -145.1905,-184.71128 1.31813,1.22918 14.68934,-3.4834 z m 2.13278,-9.42531 -1.6293,2.84048 15.50399,4.33061 z"
     style="fill:#000000"
     id="path252"
     inkscape:connector-curvature="0" />
  <path
     d="m -184.3991,-286.09445 v 178.94682 l -3.8427,-172.24755 z"
     style="fill:#eeeeee;fill-opacity:0.4"
     id="path254"
     inkscape:connector-curvature="0" />
  <path
     d="m -144.68702,-191.29611 -0.50348,6.58483 16.00747,-2.25422 z"
     style="fill:#000000"
     id="path256"
     inkscape:connector-curvature="0" />
  <path
     d="m -54.287362,-140.76085 -15.27281,-1.68557 19.11552,-5.01371 z m 3.84271,-6.69928 -15.27281,-1.68556 v -68.75436 z"
     style="fill:#eeeeee;fill-opacity:0.4"
     id="path258"
     inkscape:connector-curvature="0" />
  <path
     d="m -69.560172,-211.20078 v 68.75436 m 0,0 15.27281,1.68557 m -55.216058,-44.03273 24.971868,2.75599"
     style="fill:none;stroke:#000000;stroke-width:1;stroke-linecap:round"
     id="path260"
     inkscape:connector-curvature="0" />
  <path
     d="m -172.96899,-277.70961 v 178.946824 l 3.8427,-185.646104 z"
     style="fill:#eeeeee;fill-opacity:0.4"
     id="path262"
     inkscape:connector-curvature="0" />
  <path
     d="m -54.287362,-209.51521 v 68.75436"
     style="fill:none;stroke:#000000;stroke-width:1;stroke-linecap:round"
     id="path264"
     inkscape:connector-curvature="0" />
  <path
     d="m -109.78547,-266.22716 v 155.68154 l -15.27281,-157.36711 z m 55.498108,125.46631 3.84271,-6.69928 v -68.75436 z M -188.2418,-279.39518 v 178.94682 l 15.27281,-177.26125 z m 122.524338,130.24949 -3.84271,6.69927 v -68.75436 z m -59.340818,-118.76704 v 155.68154 l -3.8427,-148.98227 z"
     style="fill:#eeeeee;fill-opacity:0.4"
     id="path266"
     inkscape:connector-curvature="0" />
  <path
     d="m -85.849682,-178.16219 1.31813,1.22917 14.68933,-3.48339 z m 2.13278,-9.42531 -1.6293,2.84047 15.50398,4.33062 z m -1.6293,2.84047 -0.50348,6.58484 16.00746,-2.25422 z"
     style="fill:#000000"
     id="path268"
     inkscape:connector-curvature="0" />
  <path
     d="m -50.444652,-216.21449 v 68.75436 l -15.27281,-70.43992 z m -15.27281,-1.68556 v 68.75436 l -3.84271,-62.05509 z m -3.84271,75.45363 15.27281,1.68557 v -68.75436 z m -44.068008,-117.08147 v 155.68154 l 3.84271,-162.38081 z m -15.2728,-1.68557 v 155.68155 l 15.2728,-153.99598 z"
     style="fill:#eeeeee;fill-opacity:0.4"
     id="path270"
     inkscape:connector-curvature="0" />
  <path
     d="m -50.444652,-216.21449 -15.27281,-1.68556 m 0,0 -3.84271,6.69927 m -99.566118,-73.20811 -15.27281,-1.68556 m 0,0 -3.8427,6.69927"
     style="fill:none;stroke:#000000;stroke-width:1;stroke-linecap:round"
     id="path272"
     inkscape:connector-curvature="0" />
  <path
     d="m -54.287362,-209.51521 v 68.75436 l 3.84271,-75.45364 z"
     style="fill:#eeeeee;fill-opacity:0.4"
     id="path274"
     inkscape:connector-curvature="0" />
  <path
     d="m -50.444652,-216.21449 -3.84271,6.69928 m -114.838928,-74.89368 -3.8427,6.69928"
     style="fill:none;stroke:#000000;stroke-width:1;stroke-linecap:round"
     id="path276"
     inkscape:connector-curvature="0" />
  <path
     d="m -69.560172,-211.20078 v 68.75436 l 15.27281,-67.06879 z m 15.27281,1.68557 3.84271,-6.69928 -15.27281,-1.68556 z m -118.681628,-68.1944 3.8427,-6.69928 -15.27281,-1.68556 z"
     style="fill:#eeeeee;fill-opacity:0.4"
     id="path278"
     inkscape:connector-curvature="0" />
  <path
     d="m -109.78547,-266.22716 -15.27281,-1.68557 m 0,0 -3.8427,6.69927"
     style="fill:none;stroke:#000000;stroke-width:1;stroke-linecap:round"
     id="path280"
     inkscape:connector-curvature="0" />
  <path
     d="m -69.560172,-211.20078 15.27281,1.68557 -11.4301,-8.38484 z m -118.681628,-68.1944 15.27281,1.68557 -11.43011,-8.38484 z"
     style="fill:#eeeeee;fill-opacity:0.4"
     id="path282"
     inkscape:connector-curvature="0" />
  <path
     d="m -109.78547,-266.22716 -3.84271,6.69927 m 44.068008,48.32711 15.27281,1.68557 m -133.954438,-69.87997 15.27281,1.68557"
     style="fill:none;stroke:#000000;stroke-width:1;stroke-linecap:round"
     id="path284"
     inkscape:connector-curvature="0" />
  <path
     d="m -113.62818,-259.52789 3.84271,-6.69927 -15.27281,-1.68557 z m -15.2728,-1.68557 15.2728,1.68557 -11.4301,-8.38484 z"
     style="fill:#eeeeee;fill-opacity:0.4"
     id="path286"
     inkscape:connector-curvature="0" />
  <path
     d="m -128.90098,-261.21346 15.2728,1.68557"
     style="fill:none;stroke:#000000;stroke-width:1;stroke-linecap:round"
     id="path288"
     inkscape:connector-curvature="0" />
</svg>
