<?xml version="1.0" encoding="UTF-8" standalone="no"?>
<svg
   xmlns:dc="http://purl.org/dc/elements/1.1/"
   xmlns:cc="http://creativecommons.org/ns#"
   xmlns:rdf="http://www.w3.org/1999/02/22-rdf-syntax-ns#"
   xmlns:svg="http://www.w3.org/2000/svg"
   xmlns="http://www.w3.org/2000/svg"
   xmlns:sodipodi="http://sodipodi.sourceforge.net/DTD/sodipodi-0.dtd"
   xmlns:inkscape="http://www.inkscape.org/namespaces/inkscape"
   version="1.1"
   width="3.070966cm"
   height="4.0692887cm"
   viewBox="0 0 12090.426 16020.837"
   id="svg242"
   sodipodi:docname="test.svg"
   inkscape:version="0.92.3 (2405546, 2018-03-11)">
  <metadata
     id="metadata248">
    <rdf:RDF>
      <cc:Work
         rdf:about="">
        <dc:format>image/svg+xml</dc:format>
        <dc:type
           rdf:resource="http://purl.org/dc/dcmitype/StillImage" />
      </cc:Work>
    </rdf:RDF>
  </metadata>
  <defs
     id="defs246" />
  <sodipodi:namedview
     pagecolor="#ffffff"
     bordercolor="#666666"
     borderopacity="1"
     objecttolerance="10"
     gridtolerance="10"
     guidetolerance="10"
     inkscape:pageopacity="0"
     inkscape:pageshadow="2"
     inkscape:window-width="1364"
     inkscape:window-height="730"
     id="namedview244"
     showgrid="false"
     inkscape:zoom="1.1893254"
     inkscape:cx="11.104785"
     inkscape:cy="34.045051"
     inkscape:window-x="0"
     inkscape:window-y="18"
     inkscape:window-maximized="0"
     inkscape:current-layer="svg242" />
  <title
     id="title2">SVG Picture created as test.svg date 2019/07/02 22:21:25 </title>
  <desc
     id="desc4">Picture generated by Eeschema-SVG </desc>
  <g
     style="fill:#000000;fill-opacity:1;stroke:#000000;stroke-linecap:round;stroke-linejoin:round;stroke-opacity:1"
     id="g6"
     transform="translate(0,8.9445777e-5)" />
  <g
     style="fill:#000000;fill-opacity:0;stroke:#000000;stroke-width:0;stroke-linecap:round;stroke-linejoin:round;stroke-opacity:1"
     id="g8"
     transform="translate(0,8.9445777e-5)" />
  <g
     style="fill:#840000;fill-opacity:0;stroke:#840000;stroke-width:0;stroke-linecap:round;stroke-linejoin:round;stroke-opacity:1"
     id="g10"
     transform="translate(0,8.9445777e-5)" />
  <g
     style="fill:#008484;fill-opacity:0;stroke:#008484;stroke-width:0;stroke-linecap:round;stroke-linejoin:round;stroke-opacity:1"
     id="g24"
     transform="translate(0,8.9445777e-5)" />
  <g
     style="fill:#840000;fill-opacity:0;stroke:#840000;stroke-width:0;stroke-linecap:round;stroke-linejoin:round;stroke-opacity:1"
     id="g26"
     transform="translate(0,8.9445777e-5)" />
  <g
     style="fill:#008484;fill-opacity:0;stroke:#008484;stroke-width:0;stroke-linecap:round;stroke-linejoin:round;stroke-opacity:1"
     id="g46"
     transform="translate(0,8.9445777e-5)" />
  <g
     style="fill:#840000;fill-opacity:0;stroke:#840000;stroke-width:0;stroke-linecap:round;stroke-linejoin:round;stroke-opacity:1"
     id="g48"
     transform="translate(0,8.9445777e-5)" />
  <g
     style="fill:#008484;fill-opacity:0;stroke:#008484;stroke-width:0;stroke-linecap:round;stroke-linejoin:round;stroke-opacity:1"
     id="g92"
     transform="translate(0,8.9445777e-5)" />
  <g
     style="fill:#840000;fill-opacity:0;stroke:#840000;stroke-width:0;stroke-linecap:round;stroke-linejoin:round;stroke-opacity:1"
     id="g94"
     transform="translate(0,8.9445777e-5)" />
  <g
     style="fill:#008484;fill-opacity:0;stroke:#008484;stroke-width:0;stroke-linecap:round;stroke-linejoin:round;stroke-opacity:1"
     id="g122"
     transform="translate(0,8.9445777e-5)" />
  <g
     style="fill:#840000;fill-opacity:0;stroke:#840000;stroke-width:0;stroke-linecap:round;stroke-linejoin:round;stroke-opacity:1"
     id="g124"
     transform="translate(0,8.9445777e-5)" />
  <g
     style="fill:#008484;fill-opacity:0;stroke:#008484;stroke-width:0;stroke-linecap:round;stroke-linejoin:round;stroke-opacity:1"
     id="g158"
     transform="translate(0,8.9445777e-5)" />
  <g
     style="fill:#840000;fill-opacity:0;stroke:#840000;stroke-width:0;stroke-linecap:round;stroke-linejoin:round;stroke-opacity:1"
     id="g160"
     transform="translate(0,8.9445777e-5)" />
  <g
     style="fill:#840000;fill-opacity:0;stroke:#840000;stroke-width:60;stroke-linecap:round;stroke-linejoin:round;stroke-opacity:1"
     id="g236"
     transform="translate(0,8.9445777e-5)" />
  <g
     id="g1159"
     transform="translate(-18870,-15979.593)">
    <g
       id="g14"
       style="fill:#840000;fill-opacity:0;stroke:#840000;stroke-width:60;stroke-linecap:round;stroke-linejoin:round;stroke-opacity:1">
      <polyline
         id="polyline12"
         points="28000,30000 28000,30500 28500,30500 28000,31000 27500,30500 28000,30500 "
         fill="none;" />
    </g>
    <g
       id="g22"
       style="fill:#008484;fill-opacity:0;stroke:#008484;stroke-width:60;stroke-linecap:round;stroke-linejoin:round;stroke-opacity:1">
      <path
         id="path16"
         d="m 27660,31500 -40,-30 h -70 l -80,30 -40,40 -30,50 -20,100 v 70 l 20,90 30,50 40,50 80,20 h 40 l 70,-20 30,-30 v -160 h -100"
         inkscape:connector-curvature="0" />
      <path
         id="path18"
         d="m 27900,31970 v -500 l 290,500 v -500"
         inkscape:connector-curvature="0" />
      <path
         id="path20"
         d="m 28430,31970 v -500 h 120 l 70,30 40,40 30,50 20,100 v 70 l -20,90 -30,50 -40,50 -70,20 h -120"
         inkscape:connector-curvature="0" />
    </g>
    <g
       id="g34"
       style="fill:#840000;fill-opacity:0;stroke:#840000;stroke-width:60;stroke-linecap:round;stroke-linejoin:round;stroke-opacity:1">
      <polyline
         id="polyline28"
         points="27700,17500 28000,17000 "
         fill="none;" />
      <polyline
         id="polyline30"
         points="28000,18000 28000,17000 "
         fill="none;" />
      <polyline
         id="polyline32"
         points="28000,17000 28300,17500 "
         fill="none;" />
    </g>
    <g
       id="g44"
       style="fill:#008484;fill-opacity:0;stroke:#008484;stroke-width:60;stroke-linecap:round;stroke-linejoin:round;stroke-opacity:1">
      <path
         id="path36"
         d="m 27500,16320 h 380"
         inkscape:connector-curvature="0" />
      <path
         id="path38"
         d="m 27690,16510 v -380"
         inkscape:connector-curvature="0" />
      <path
         id="path40"
         d="m 28360,16010 h -240 l -20,240 20,-20 50,-30 h 120 l 50,30 20,20 20,50 v 120 l -20,40 -20,30 -50,20 h -120 l -50,-20 -20,-30"
         inkscape:connector-curvature="0" />
      <path
         id="path42"
         d="m 28530,16010 160,500 170,-500"
         inkscape:connector-curvature="0" />
    </g>
    <g
       id="g52"
       style="fill:#840000;fill-opacity:0;stroke:#840000;stroke-width:80;stroke-linecap:round;stroke-linejoin:round;stroke-opacity:1">
      <polyline
         id="polyline50"
         points="28500,25000 27500,25000 "
         fill="none;" />
    </g>
    <g
       id="g56"
       style="fill:#840000;fill-opacity:0;stroke:#840000;stroke-width:60;stroke-linecap:round;stroke-linejoin:round;stroke-opacity:1">
      <polyline
         id="polyline54"
         points="28000,25000 28000,24000 "
         fill="none;" />
    </g>
    <g
       id="g60"
       style="fill:#840000;fill-opacity:0;stroke:#840000;stroke-width:80;stroke-linecap:round;stroke-linejoin:round;stroke-opacity:1">
      <polyline
         id="polyline58"
         points="28500,24000 27500,24000 28000,25000 28500,24000 "
         fill="none;" />
    </g>
    <g
       id="g70"
       style="fill:#840000;fill-opacity:0;stroke:#840000;stroke-width:60;stroke-linecap:round;stroke-linejoin:round;stroke-opacity:1">
      <polyline
         id="polyline62"
         points="28300,25700 28900,26300 28900,26000 28900,26300 28600,26300 "
         fill="none;" />
      <polyline
         id="polyline64"
         points="28300,25200 28900,25800 28900,25500 28900,25800 28600,25800 "
         fill="none;" />
      <path
         id="path66"
         d="m 28000,25000 v 1000"
         inkscape:connector-curvature="0" />
      <path
         id="path68"
         d="M 28000,24000 V 23000"
         inkscape:connector-curvature="0" />
    </g>
    <g
       id="g90"
       style="fill:#008484;fill-opacity:0;stroke:#008484;stroke-width:60;stroke-linecap:round;stroke-linejoin:round;stroke-opacity:1">
      <path
         id="path72"
         d="m 29550,24310 h -240 v -500"
         inkscape:connector-curvature="0" />
      <path
         id="path74"
         d="m 29710,24050 h 170"
         inkscape:connector-curvature="0" />
      <path
         id="path76"
         d="m 29950,24310 h -240 v -500 h 240"
         inkscape:connector-curvature="0" />
      <path
         id="path78"
         d="m 30160,24310 v -500 h 120 l 80,30 40,40 30,50 20,100 v 70 l -20,90 -30,50 -40,50 -80,20 h -120"
         inkscape:connector-curvature="0" />
      <path
         id="path80"
         d="m 30930,24310 h -290"
         inkscape:connector-curvature="0" />
      <path
         id="path82"
         d="m 30780,24310 v -500 l -40,70 -50,50 -50,20"
         inkscape:connector-curvature="0" />
      <path
         id="path84"
         d="m 29320,25220 v -500"
         inkscape:connector-curvature="0" />
      <path
         id="path86"
         d="m 29840,25220 -170,-240"
         inkscape:connector-curvature="0" />
      <path
         id="path88"
         d="m 29550,25220 v -500 h 190 l 50,30 30,20 20,50 v 70 l -20,50 -30,20 -50,20 h -190"
         inkscape:connector-curvature="0" />
    </g>
    <g
       id="g98"
       style="fill:#840000;fill-opacity:0;stroke:#840000;stroke-width:100;stroke-linecap:round;stroke-linejoin:round;stroke-opacity:1">
      <rect
         id="rect96"
         rx="0"
         height="2000"
         width="800"
         y="27000"
         x="27600" />
    </g>
    <g
       id="g104"
       style="fill:#840000;fill-opacity:0;stroke:#840000;stroke-width:60;stroke-linecap:round;stroke-linejoin:round;stroke-opacity:1">
      <path
         id="path100"
         d="m 28000,27000 v -500"
         inkscape:connector-curvature="0" />
      <path
         id="path102"
         d="m 28000,29000 v 500"
         inkscape:connector-curvature="0" />
    </g>
    <g
       id="g120"
       style="fill:#008484;fill-opacity:0;stroke:#008484;stroke-width:60;stroke-linecap:round;stroke-linejoin:round;stroke-opacity:1">
      <path
         id="path106"
         d="m 29130,27780 -160,-240"
         inkscape:connector-curvature="0" />
      <path
         id="path108"
         d="m 28850,27780 v -500 h 190 l 40,30 30,20 20,50 v 70 l -20,50 -30,20 -40,20 h -190"
         inkscape:connector-curvature="0" />
      <path
         id="path110"
         d="m 29320,27330 30,-20 40,-30 h 120 l 50,30 20,20 30,50 v 40 l -30,80 -280,280 h 310"
         inkscape:connector-curvature="0" />
      <path
         id="path112"
         d="m 29100,28690 h -280"
         inkscape:connector-curvature="0" />
      <path
         id="path114"
         d="m 28960,28690 v -500 l -50,70 -50,50 -40,20"
         inkscape:connector-curvature="0" />
      <path
         id="path116"
         d="m 29410,28190 h 50 l 50,30 20,20 20,50 30,90 v 120 l -30,100 -20,40 -20,30 -50,20 h -50 l -50,-20 -20,-30 -20,-40 -30,-100 v -120 l 30,-90 20,-50 20,-20 50,-30"
         inkscape:connector-curvature="0" />
      <path
         id="path118"
         d="m 29890,28190 h 50 l 40,30 30,20 20,50 20,90 v 120 l -20,100 -20,40 -30,30 -40,20 h -50 l -50,-20 -20,-30 -30,-40 -20,-100 v -120 l 20,-90 30,-50 20,-20 50,-30"
         inkscape:connector-curvature="0" />
    </g>
    <g
       id="g128"
       style="fill:#840000;fill-opacity:0;stroke:#840000;stroke-width:100;stroke-linecap:round;stroke-linejoin:round;stroke-opacity:1">
      <rect
         id="rect126"
         rx="0"
         height="800"
         width="2000"
         y="20100"
         x="22000" />
    </g>
    <g
       id="g134"
       style="fill:#840000;fill-opacity:0;stroke:#840000;stroke-width:60;stroke-linecap:round;stroke-linejoin:round;stroke-opacity:1">
      <path
         id="path130"
         d="m 24000,20500 h 500"
         inkscape:connector-curvature="0" />
      <path
         id="path132"
         d="m 22000,20500 h -500"
         inkscape:connector-curvature="0" />
    </g>
    <g
       id="g156"
       style="fill:#008484;fill-opacity:0;stroke:#008484;stroke-width:60;stroke-linecap:round;stroke-linejoin:round;stroke-opacity:1">
      <path
         id="path136"
         d="m 22910,18670 -160,-240"
         inkscape:connector-curvature="0" />
      <path
         id="path138"
         d="m 22630,18670 v -500 h 190 l 40,30 30,20 20,50 v 70 l -20,50 -30,20 -40,20 h -190"
         inkscape:connector-curvature="0" />
      <path
         id="path140"
         d="m 23390,18670 h -290"
         inkscape:connector-curvature="0" />
      <path
         id="path142"
         d="m 23250,18670 v -500 l -50,70 -50,50 -50,20"
         inkscape:connector-curvature="0" />
      <path
         id="path144"
         d="m 22650,19250 v 330"
         inkscape:connector-curvature="0" />
      <path
         id="path146"
         d="m 22530,19060 -120,350 h 310"
         inkscape:connector-curvature="0" />
      <path
         id="path148"
         d="m 22910,19580 v -500"
         inkscape:connector-curvature="0" />
      <path
         id="path150"
         d="m 22960,19390 140,190"
         inkscape:connector-curvature="0" />
      <path
         id="path152"
         d="m 23100,19250 -190,190"
         inkscape:connector-curvature="0" />
      <path
         id="path154"
         d="m 23270,19080 h 330 l -210,500"
         inkscape:connector-curvature="0" />
    </g>
    <g
       id="g164"
       style="fill:#840000;fill-opacity:0;stroke:#840000;stroke-width:100;stroke-linecap:round;stroke-linejoin:round;stroke-opacity:1">
      <circle
         id="circle162"
         r="1110"
         cy="20500"
         cx="27500" />
    </g>
    <g
       id="g170"
       style="fill:#840000;fill-opacity:0;stroke:#840000;stroke-width:60;stroke-linecap:round;stroke-linejoin:round;stroke-opacity:1">
      <polyline
         id="polyline166"
         points="27250,20250 28000,19500 "
         fill="none;" />
      <polyline
         id="polyline168"
         points="27250,20750 28000,21500 28000,21500 "
         fill="none;" />
    </g>
    <g
       id="g174"
       style="fill:#840000;fill-opacity:0;stroke:#840000;stroke-width:200;stroke-linecap:round;stroke-linejoin:round;stroke-opacity:1">
      <polyline
         id="polyline172"
         points="27250,19750 27250,21250 27250,21250 "
         fill="none;" />
    </g>
    <g
       id="g178"
       style="fill:#840000;fill-opacity:1;stroke:#840000;stroke-width:60;stroke-linecap:round;stroke-linejoin:round;stroke-opacity:1">
      <polyline
         id="polyline176"
         points="27900,21200 27700,21400 27500,21000 27900,21200 27900,21200 "
         style="fill-rule:evenodd" />
    </g>
    <g
       id="g194"
       style="fill:#840000;fill-opacity:0;stroke:#840000;stroke-width:60;stroke-linecap:round;stroke-linejoin:round;stroke-opacity:1">
      <path
         id="path180"
         d="M 27250,20500 H 25000"
         inkscape:connector-curvature="0" />
      <path
         id="path182"
         d="m 26260,21070 h -290"
         inkscape:connector-curvature="0" />
      <path
         id="path184"
         d="m 26120,21070 v -500 l -50,70 -50,50 -50,20"
         inkscape:connector-curvature="0" />
      <path
         id="path186"
         d="M 28000,19500 V 18500"
         inkscape:connector-curvature="0" />
      <path
         id="path188"
         d="m 28120,19140 -20,-30 -30,-40 v -120 l 30,-50 20,-20 50,-30 h 40 l 80,30 280,280 v -310"
         inkscape:connector-curvature="0" />
      <path
         id="path190"
         d="m 28000,21500 v 1000"
         inkscape:connector-curvature="0" />
      <path
         id="path192"
         d="m 28070,22160 v -310 l 190,170 v -70 l 30,-50 20,-20 50,-30 h 120 l 40,30 30,20 20,50 v 140 l -20,50 -30,20"
         inkscape:connector-curvature="0" />
    </g>
    <g
       id="g210"
       style="fill:#008484;fill-opacity:0;stroke:#008484;stroke-width:60;stroke-linecap:round;stroke-linejoin:round;stroke-opacity:1">
      <path
         id="path196"
         d="m 29390,20330 -50,-20 -50,-50 -70,-70 -50,-30 h -40"
         inkscape:connector-curvature="0" />
      <path
         id="path198"
         d="m 29150,20280 -50,-20 -50,-50 -20,-100 v -160 l 20,-100 50,-40 50,-30 h 90 l 50,30 50,40 20,100 v 160 l -20,100 -50,50 -50,20 h -90"
         inkscape:connector-curvature="0" />
      <path
         id="path200"
         d="m 29840,20280 h -290"
         inkscape:connector-curvature="0" />
      <path
         id="path202"
         d="m 29700,20280 v -500 l -50,70 -50,50 -50,20"
         inkscape:connector-curvature="0" />
      <path
         id="path204"
         d="m 29050,21190 v -500 h 190 l 50,30 20,20 30,50 v 70 l -30,50 -20,20 -50,20 h -190"
         inkscape:connector-curvature="0" />
      <path
         id="path206"
         d="m 29550,21190 v -500 l 290,500 v -500"
         inkscape:connector-curvature="0" />
      <path
         id="path208"
         d="m 30080,21190 v -500 h 190 l 40,30 30,20 20,50 v 70 l -20,50 -30,20 -40,20 h -190"
         inkscape:connector-curvature="0" />
    </g>
    <g
       id="g222"
       style="fill:#008400;fill-opacity:0;stroke:#008400;stroke-width:60;stroke-linecap:round;stroke-linejoin:round;stroke-opacity:1">
      <path
         id="path212"
         d="m 28000,30000 v -500"
         inkscape:connector-curvature="0" />
      <path
         id="path214"
         d="m 28000,26000 v 500"
         inkscape:connector-curvature="0" />
      <path
         id="path216"
         d="m 28000,22500 v 500"
         inkscape:connector-curvature="0" />
      <path
         id="path218"
         d="m 24500,20500 h 500"
         inkscape:connector-curvature="0" />
      <path
         id="path220"
         d="m 28000,18000 v 500"
         inkscape:connector-curvature="0" />
    </g>
    <g
       id="g230"
       style="fill:#840000;fill-opacity:0;stroke:#840000;stroke-width:60;stroke-linecap:round;stroke-linejoin:round;stroke-opacity:1">
      <path
         id="path224"
         d="m 19180,20720 v -500 l 170,360 160,-360 v 500"
         inkscape:connector-curvature="0" />
      <path
         id="path226"
         d="m 20040,20670 -30,30 -70,20 h -50 l -70,-20 -50,-50 -20,-50 -20,-90 v -70 l 20,-100 20,-50 50,-40 70,-30 h 50 l 70,30 30,20"
         inkscape:connector-curvature="0" />
      <path
         id="path228"
         d="m 20250,20220 v 410 l 20,40 30,30 50,20 h 90 l 50,-20 20,-30 30,-40 v -410"
         inkscape:connector-curvature="0" />
    </g>
    <g
       id="g234"
       style="fill:#840000;fill-opacity:0;stroke:#840000;stroke-width:100;stroke-linecap:round;stroke-linejoin:round;stroke-opacity:1">
      <polyline
         id="polyline232"
         points="21000,20500 20750,20060 18920,20060 18920,20500 18920,20940 20750,20940 21000,20500 "
         fill="none;" />
    </g>
    <g
       id="g240"
       style="fill:#008400;fill-opacity:0;stroke:#008400;stroke-width:60;stroke-linecap:round;stroke-linejoin:round;stroke-opacity:1">
      <path
         id="path238"
         d="m 21000,20500 h 500"
         inkscape:connector-curvature="0" />
    </g>
  </g>
</svg>
