<?xml version="1.0" encoding="UTF-8" standalone="no"?>
<svg
   xmlns:dc="http://purl.org/dc/elements/1.1/"
   xmlns:cc="http://creativecommons.org/ns#"
   xmlns:rdf="http://www.w3.org/1999/02/22-rdf-syntax-ns#"
   xmlns:svg="http://www.w3.org/2000/svg"
   xmlns="http://www.w3.org/2000/svg"
   xmlns:sodipodi="http://sodipodi.sourceforge.net/DTD/sodipodi-0.dtd"
   xmlns:inkscape="http://www.inkscape.org/namespaces/inkscape"
   viewBox="-682 -337.5 747.32715 370.51102"
   width="747.32715"
   height="370.51102"
   version="1.1"
   id="svg230"
   sodipodi:docname="nn.svg"
   inkscape:version="0.92.3 (2405546, 2018-03-11)">
  <metadata
     id="metadata236">
    <rdf:RDF>
      <cc:Work
         rdf:about="">
        <dc:format>image/svg+xml</dc:format>
        <dc:type
           rdf:resource="http://purl.org/dc/dcmitype/StillImage" />
      </cc:Work>
    </rdf:RDF>
  </metadata>
  <defs
     id="defs234" />
  <sodipodi:namedview
     pagecolor="#ffffff"
     bordercolor="#666666"
     borderopacity="1"
     objecttolerance="10"
     gridtolerance="10"
     guidetolerance="10"
     inkscape:pageopacity="0"
     inkscape:pageshadow="2"
     inkscape:window-width="1364"
     inkscape:window-height="730"
     id="namedview232"
     showgrid="false"
     inkscape:zoom="0.30897041"
     inkscape:cx="528.1559"
     inkscape:cy="-74.098692"
     inkscape:window-x="0"
     inkscape:window-y="18"
     inkscape:window-maximized="0"
     inkscape:current-layer="svg230" />
  <g
     id="g1157"
     transform="translate(-482.31327,-197.2288)">
    <path
       id="path2"
       style="fill:none;stroke:#000000;stroke-width:1;stroke-linecap:round"
       d="m -81.160966,21.295828 -36.309854,-8.009626 m 0,-153.050282 V 13.286202 m 0,0 -81.70895,56.627613 M -81.160966,-131.75445 V 21.295828 m 0,0 -81.708944,56.627613"
       inkscape:connector-curvature="0" />
    <path
       id="path4"
       style="fill:#eeeeee;fill-opacity:0.4"
       d="M -81.160966,21.295828 -117.47082,13.286202 V -139.76408 Z m -118.018804,48.617987 81.70895,-56.627613 36.309854,8.009626 z M -81.160966,-131.75445 V 21.295828 L -117.47082,-139.76408 Z"
       inkscape:connector-curvature="0" />
    <path
       id="path6"
       style="fill:none;stroke:#000000;stroke-width:1;stroke-linecap:round"
       d="m -81.160966,-131.75445 -36.309854,-8.00963 m 0,0 -81.70895,56.627613 M 89.006562,48.77919 -25.538276,23.511631 m 0,-113.794975 V 23.511631 m 0,0 -60.75172,42.103404 m 5.12903,-197.369485 -81.708944,56.62761"
       inkscape:connector-curvature="0" />
    <path
       id="path8"
       style="fill:#eeeeee;fill-opacity:0.4"
       d="M -162.86991,77.923441 -81.160966,21.295828 V -131.75445 Z m 45.39909,-217.687521 V 13.286202 l -81.70895,-96.422669 z m -45.39909,217.687521 -36.30986,-8.009626 118.018804,-48.617987 z m 45.39909,-64.637239 -81.70895,56.627613 V -83.136467 Z M 89.006562,48.77919 -25.538276,23.511631 V -90.283344 Z m -251.876472,-123.90603 81.708944,-56.62761 -36.309854,-8.00963 z"
       inkscape:connector-curvature="0" />
    <path
       id="path10"
       style="fill:none;stroke:#000000;stroke-width:1;stroke-linecap:round"
       d="M 89.006562,-65.015785 -25.538276,-90.283344 m 0,0 -60.75172,42.103404 m -43.266304,-16.087527 -36.30986,-8.009626 m 0,-10.478048 v 10.478048 m 0,0 -5.59391,3.876809 m 250.370832,39.20147 -114.544838,-25.267558 m 0,-10.478048 v 10.478048 m 0,0 -5.593915,3.876809"
       inkscape:connector-curvature="0" />
    <path
       id="path12"
       style="fill:#eeeeee;fill-opacity:0.4"
       d="M -86.289996,65.615035 -25.538276,23.511631 89.006562,48.77919 Z"
       inkscape:connector-curvature="0" />
    <path
       id="path14"
       style="fill:none;stroke:#000000;stroke-width:1;stroke-linecap:round"
       d="M -199.17977,-83.136467 V 69.913815 m 0,0 36.30986,8.009626 m 33.31361,-152.668956 -36.30986,-8.009626 m 0,0 -5.59391,3.87681"
       inkscape:connector-curvature="0" />
    <path
       id="path16"
       style="fill:#99ddff;fill-opacity:0.4"
       d="m -165.86616,-82.755141 v 10.478048 l -5.59391,-6.601238 z"
       inkscape:connector-curvature="0" />
    <path
       id="path18"
       style="fill:none;stroke:#000000;stroke-width:1;stroke-linecap:round"
       d="M 78.910762,-39.676862 -35.634076,-64.94442 m 0,0 -5.593915,3.87681"
       inkscape:connector-curvature="0" />
    <path
       id="path20"
       style="fill:#99ddff;fill-opacity:0.4"
       d="m -165.86616,-72.277093 -5.59391,3.876809 v -10.478047 z m 130.232084,7.332673 v 10.478048 l -5.593915,-6.601238 z m -93.922224,0.676953 -36.30986,-8.009626 v -10.478048 z"
       inkscape:connector-curvature="0" />
    <path
       id="path22"
       style="fill:none;stroke:#000000;stroke-width:1;stroke-linecap:round"
       d="M 89.006562,-65.015785 V 48.77919 m 0,0 -60.75172,42.103404 M -171.46007,-78.878331 v 10.478047 m 0,0 36.30985,8.009627"
       inkscape:connector-curvature="0" />
    <path
       id="path24"
       style="fill:#99ddff;fill-opacity:0.4"
       d="m -35.634076,-54.466372 -5.593915,3.876809 V -61.06761 Z m -135.825994,-13.933912 5.59391,-3.876809 36.30986,8.009626 z"
       inkscape:connector-curvature="0" />
    <path
       id="path26"
       style="fill:none;stroke:#000000;stroke-width:1;stroke-linecap:round"
       d="m -41.227991,-61.06761 v 10.478047 m 0,0 114.544838,25.267559 m -244.776917,-53.556327 36.30985,8.009626"
       inkscape:connector-curvature="0" />
    <path
       id="path28"
       style="fill:#eeeeee;fill-opacity:0.4"
       d="M -25.538276,-90.283344 V 23.511631 l -60.75172,-71.691571 z"
       inkscape:connector-curvature="0" />
    <path
       id="path30"
       style="fill:none;stroke:#000000;stroke-width:1;stroke-linecap:round"
       d="M -41.227991,-61.06761 73.316847,-35.800052"
       inkscape:connector-curvature="0" />
    <path
       id="path32"
       style="fill:#99ddff;fill-opacity:0.4"
       d="m -129.5563,-74.745515 v 10.478048 l -36.30986,-18.487674 z m -41.90377,-4.132816 36.30985,8.009626 -30.71594,-11.886436 z m 0,0 v 10.478047 l 36.30985,-2.468421 z m 36.30985,18.487674 -36.30985,-8.009627 41.90377,4.132817 z"
       inkscape:connector-curvature="0" />
    <path
       id="path34"
       style="fill:none;stroke:#000000;stroke-width:1;stroke-linecap:round"
       d="m -129.5563,-74.745515 v 10.478048 m 0,0 -5.59392,3.87681 m 5.59392,-14.354859 v 10.478047 m 0,0 -5.59392,3.87681 m 5.59392,-3.87681 65.955854,21.707569"
       inkscape:connector-curvature="0" />
    <path
       id="path36"
       style="fill:#99ddff;fill-opacity:0.4"
       d="m -135.15022,-70.868705 5.59392,-3.87681 -36.30986,-8.009626 z"
       inkscape:connector-curvature="0" />
    <path
       id="path38"
       style="fill:#eeeeee;fill-opacity:0.4"
       d="M 89.006562,-65.015785 V 48.77919 L -25.538276,-90.283344 Z M -162.86991,-75.12684 V 77.923441 l 81.708944,-209.677891 z"
       inkscape:connector-curvature="0" />
    <path
       id="path40"
       style="fill:none;stroke:#000000;stroke-width:1;stroke-linecap:round"
       d="M -162.86991,-75.12684 V 77.923441"
       inkscape:connector-curvature="0" />
    <path
       id="path42"
       style="fill:#99ddff;fill-opacity:0.4"
       d="M 78.910762,-29.198814 -35.634076,-54.466372 V -64.94442 Z m -250.370832,-39.20147 36.30985,8.009627 v -10.478048 z"
       inkscape:connector-curvature="0" />
    <path
       id="path44"
       style="fill:none;stroke:#000000;stroke-width:1;stroke-linecap:round"
       d="m -129.5563,-74.745515 -5.59392,3.87681 m 5.59392,-3.876811 -5.59392,3.876809 m 5.59392,-3.876809 65.955854,32.185616"
       inkscape:connector-curvature="0" />
    <path
       id="path46"
       style="fill:#ffbbbb;fill-opacity:0.4"
       d="m -129.55631,-74.745515 v 10.478048 l -5.59391,3.87681 z"
       inkscape:connector-curvature="0" />
    <path
       id="path48"
       style="fill:#99ddff;fill-opacity:0.4"
       d="m -135.15022,-60.390657 5.59392,-3.87681 v -10.478048 z m 93.922229,9.801094 5.593915,-3.876809 114.544838,25.267558 z"
       inkscape:connector-curvature="0" />
    <path
       id="path50"
       style="fill:#ffbbbb;fill-opacity:0.4"
       d="m -129.55631,-74.745515 -5.59391,14.354858 v -10.478048 z"
       inkscape:connector-curvature="0" />
    <path
       id="path52"
       style="fill:#99ddff;fill-opacity:0.4"
       d="m -135.15022,-70.868705 v 10.478048 l 5.59392,-14.354858 z"
       inkscape:connector-curvature="0" />
    <path
       id="path54"
       style="fill:none;stroke:#000000;stroke-width:1;stroke-linecap:round"
       d="m -135.15022,-70.868705 v 10.478048 m 0,-2e-6 v -10.478048 m 0,10.478048 71.549774,17.830759"
       inkscape:connector-curvature="0" />
    <path
       id="path56"
       style="fill:#eeeeee;fill-opacity:0.4"
       d="m -199.17977,-83.136467 36.30986,8.009627 45.39909,-64.63724 z"
       inkscape:connector-curvature="0" />
    <path
       id="path58"
       style="fill:#ffbbbb;fill-opacity:0.4"
       d="m -129.55631,-64.267467 v -10.478048 l 65.955864,32.185614 z"
       inkscape:connector-curvature="0" />
    <path
       id="path60"
       style="fill:#eeeeee;fill-opacity:0.4"
       d="m -25.538276,23.511631 -60.75172,42.103404 V -48.17994 Z"
       inkscape:connector-curvature="0" />
    <path
       id="path62"
       style="fill:#99ddff;fill-opacity:0.4"
       d="M -41.227991,-61.06761 73.316847,-35.800052 -35.634076,-64.94442 Z"
       inkscape:connector-curvature="0" />
    <path
       id="path64"
       style="fill:#ffbbbb;fill-opacity:0.4"
       d="m -135.15022,-60.390657 5.59391,-3.87681 65.955864,21.707566 z"
       inkscape:connector-curvature="0" />
    <path
       id="path66"
       style="fill:none;stroke:#000000;stroke-width:1;stroke-linecap:round"
       d="M -135.15022,-70.868707 -63.600446,-42.5599"
       inkscape:connector-curvature="0" />
    <path
       id="path68"
       style="fill:#99ddff;fill-opacity:0.4"
       d="m -41.227991,-61.06761 v 10.478047 l 114.544838,14.789511 z"
       inkscape:connector-curvature="0" />
    <path
       id="path70"
       style="fill:#ffbbbb;fill-opacity:0.4"
       d="m -129.55631,-74.745515 -5.59391,3.87681 71.549774,28.308804 z m -5.59391,3.87681 v 10.478048 l 71.549774,17.830756 z"
       inkscape:connector-curvature="0" />
    <path
       id="path72"
       style="fill:#eeeeee;fill-opacity:0.4"
       d="m -199.17977,69.913815 36.30986,8.009626 V -75.12684 Z"
       inkscape:connector-curvature="0" />
    <path
       id="path74"
       style="fill:#99ddff;fill-opacity:0.4"
       d="m 78.910762,-39.676862 v 10.478048 L -35.634076,-64.94442 Z m -5.593915,14.354858 -114.544838,-25.267559 120.138753,21.390749 z"
       inkscape:connector-curvature="0" />
    <path
       id="path76"
       style="fill:none;stroke:#000000;stroke-width:1;stroke-linecap:round"
       d="M -86.289996,-48.17994 V 65.615035 m 0,0 114.544838,25.267559"
       inkscape:connector-curvature="0" />
    <path
       id="path78"
       style="fill:#99ddff;fill-opacity:0.4"
       d="m 73.316847,-35.800052 5.593915,-3.87681 L -35.634076,-64.94442 Z M -41.227991,-50.589563 73.316847,-25.322004 v -10.478048 z"
       inkscape:connector-curvature="0" />
    <path
       id="path80"
       style="fill:#eeeeee;fill-opacity:0.4"
       d="M -199.17977,-83.136467 V 69.913815 L -162.86991,-75.12684 Z M 28.254842,90.882594 -86.289996,65.615035 89.006562,48.77919 Z"
       inkscape:connector-curvature="0" />
    <path
       id="path82"
       style="fill:none;stroke:#000000;stroke-width:1;stroke-linecap:round"
       d="m 89.006562,-65.015785 -60.75172,42.103404"
       inkscape:connector-curvature="0" />
    <path
       id="path84"
       style="fill:#eeeeee;fill-opacity:0.4"
       d="M 28.254842,90.882594 89.006562,48.77919 V -65.015785 Z"
       inkscape:connector-curvature="0" />
    <path
       id="path86"
       style="fill:none;stroke:#000000;stroke-width:1;stroke-linecap:round"
       d="m 78.910757,-39.676862 v 10.478048 m 0,0 -5.593915,3.87681 m 5.593915,-3.87681 56.979633,27.7166002 M 78.910762,-39.676862 v 10.478048 m 0,0 -5.593915,3.87681 m 5.59391,-14.354858 -5.593915,3.87681 m 5.593915,-3.87681 56.979633,38.1946482 m -56.979628,-38.1946482 -5.593915,3.87681"
       inkscape:connector-curvature="0" />
    <path
       id="path88"
       style="fill:#ffbbbb;fill-opacity:0.4"
       d="m 78.91076,-39.676862 v 10.478048 l -5.593915,3.876809 z"
       inkscape:connector-curvature="0" />
    <path
       id="path90"
       style="fill:#99ddff;fill-opacity:0.4"
       d="m 73.316847,-25.322004 5.593915,-3.87681 v -10.478048 z"
       inkscape:connector-curvature="0" />
    <path
       id="path92"
       style="fill:none;stroke:#000000;stroke-width:1;stroke-linecap:round"
       d="m -199.17977,-83.136467 36.30986,8.009627 M 281.57284,80.713971 144.11904,50.392903 m 0,-72.628289 v 72.628289 m 0,0 -38.77406,26.871996"
       inkscape:connector-curvature="0" />
    <path
       id="path94"
       style="fill:#eeeeee;fill-opacity:0.4"
       d="M 28.254842,-22.912381 89.006562,-65.015785 -25.538276,-90.283344 Z"
       inkscape:connector-curvature="0" />
    <path
       id="path96"
       style="fill:#ffbbbb;fill-opacity:0.4"
       d="m 78.91076,-39.676862 -5.593915,14.354857 v -10.478047 z"
       inkscape:connector-curvature="0" />
    <path
       id="path98"
       style="fill:#99ddff;fill-opacity:0.4"
       d="m 73.316847,-35.800052 v 10.478048 l 5.593915,-14.354858 z"
       inkscape:connector-curvature="0" />
    <path
       id="path100"
       style="fill:none;stroke:#000000;stroke-width:1;stroke-linecap:round"
       d="m 73.316842,-25.322004 v -10.478048 m 0,10.478048 62.573548,23.8397902 M 73.316847,-35.800052 v 10.478048 m -5e-6,-10.478048 62.573548,34.3178382"
       inkscape:connector-curvature="0" />
    <path
       id="path102"
       style="fill:#ffbbbb;fill-opacity:0.4"
       d="m 78.91076,-29.198814 v -10.478048 l 56.97963,38.1946476 z m -5.593915,3.876809 5.593915,-3.876809 56.97963,27.7165996 z m 5.593915,-14.354857 -5.593915,3.87681 62.573545,34.3178376 z"
       inkscape:connector-curvature="0" />
    <path
       id="path104"
       style="fill:#eeeeee;fill-opacity:0.4"
       d="M -86.289996,-48.17994 28.254842,-22.912381 -25.538276,-90.283344 Z"
       inkscape:connector-curvature="0" />
    <path
       id="path106"
       style="fill:#ffbbbb;fill-opacity:0.4"
       d="m 73.316845,-35.800052 v 10.478047 l 62.573545,23.8397906 z"
       inkscape:connector-curvature="0" />
    <path
       id="path108"
       style="fill:none;stroke:#000000;stroke-width:1;stroke-linecap:round"
       d="M -86.289996,-48.17994 28.254842,-22.912381"
       inkscape:connector-curvature="0" />
    <path
       id="path110"
       style="fill:#eeeeee;fill-opacity:0.4"
       d="M -86.289996,-48.17994 V 65.615035 L 28.254842,-22.912381 Z"
       inkscape:connector-curvature="0" />
    <path
       id="path112"
       style="fill:none;stroke:#000000;stroke-width:1;stroke-linecap:round"
       d="M 281.57284,8.0856817 144.11904,-22.235386 m 0,0 -38.77406,26.8719963"
       inkscape:connector-curvature="0" />
    <path
       id="path114"
       style="fill:#eeeeee;fill-opacity:0.4"
       d="M 281.57284,80.713971 144.11904,50.392903 V -22.235386 Z M -86.289996,65.615035 28.254842,90.882594 V -22.912381 Z M 28.254842,-22.912381 V 90.882594 l 60.75172,-155.898379 z"
       inkscape:connector-curvature="0" />
    <path
       id="path116"
       style="fill:none;stroke:#000000;stroke-width:1;stroke-linecap:round"
       d="M 28.254842,-22.912381 V 90.882594"
       inkscape:connector-curvature="0" />
    <path
       id="path118"
       style="fill:#eeeeee;fill-opacity:0.4"
       d="M 144.11904,-22.235386 V 50.392903 L 105.34498,4.6366103 Z m -38.77406,99.500285 38.77406,-26.871996 137.4538,30.321068 z M 144.11904,50.392903 105.34498,77.264899 V 4.6366103 Z"
       inkscape:connector-curvature="0" />
    <path
       id="path120"
       style="fill:none;stroke:#000000;stroke-width:1;stroke-linecap:round"
       d="M 105.34498,4.6366103 V 77.264899 m 0,0 137.45379,30.321071"
       inkscape:connector-curvature="0" />
    <path
       id="path122"
       style="fill:#eeeeee;fill-opacity:0.4"
       d="M 281.57284,8.0856817 V 80.713971 L 144.11904,-22.235386 Z"
       inkscape:connector-curvature="0" />
    <path
       id="path124"
       style="fill:none;stroke:#000000;stroke-width:1;stroke-linecap:round"
       d="M 281.57284,8.0856817 V 80.713971 m 0,0 -38.77407,26.871999 m 126.31414,113.18939 -22.90897,-5.05352 m 0,-290.513151 V 215.72184 m 0,0 -12.92469,8.95734"
       inkscape:connector-curvature="0" />
    <path
       id="path126"
       style="fill:#eeeeee;fill-opacity:0.4"
       d="M 242.79877,107.58597 105.34498,77.264899 281.57284,80.713971 Z"
       inkscape:connector-curvature="0" />
    <path
       id="path128"
       style="fill:none;stroke:#000000;stroke-width:1;stroke-linecap:round"
       d="M 105.34498,4.6366103 242.79877,34.957678"
       inkscape:connector-curvature="0" />
    <path
       id="path130"
       style="fill:#eeeeee;fill-opacity:0.4"
       d="M 105.34498,4.6366103 242.79877,34.957678 144.11904,-22.235386 Z m 227.93427,220.0425697 12.92469,-8.95734 22.90897,5.05352 z"
       inkscape:connector-curvature="0" />
    <path
       id="path132"
       style="fill:none;stroke:#000000;stroke-width:1;stroke-linecap:round"
       d="m 369.11291,-69.7378 v 290.51316 m 0,0 -12.92469,8.95733"
       inkscape:connector-curvature="0" />
    <path
       id="path134"
       style="fill:#eeeeee;fill-opacity:0.4"
       d="M 242.79877,34.957678 281.57284,8.0856817 144.11904,-22.235386 Z"
       inkscape:connector-curvature="0" />
    <path
       id="path136"
       style="fill:none;stroke:#000000;stroke-width:1;stroke-linecap:round"
       d="M 281.57284,8.0856817 242.79877,34.957678"
       inkscape:connector-curvature="0" />
    <path
       id="path138"
       style="fill:#eeeeee;fill-opacity:0.4"
       d="M 242.79877,107.58597 281.57284,80.713971 V 8.0856817 Z"
       inkscape:connector-curvature="0" />
    <path
       id="path140"
       style="fill:none;stroke:#000000;stroke-width:1;stroke-linecap:round"
       d="M 333.27925,-65.833979 V 224.67918 m 0,0 22.90897,5.05351"
       inkscape:connector-curvature="0" />
    <path
       id="path142"
       style="fill:#eeeeee;fill-opacity:0.4"
       d="M 105.34498,4.6366103 V 77.264899 L 242.79877,34.957678 Z m 250.84324,225.0960797 -22.90897,-5.05351 35.83366,-3.90382 z"
       inkscape:connector-curvature="0" />
    <path
       id="path144"
       style="fill:none;stroke:#000000;stroke-width:1;stroke-linecap:round"
       d="M 356.18822,-60.780467 V 229.73269"
       inkscape:connector-curvature="0" />
    <path
       id="path146"
       style="fill:#eeeeee;fill-opacity:0.4"
       d="M 105.34498,77.264899 242.79877,107.58597 V 34.957678 Z"
       inkscape:connector-curvature="0" />
    <path
       id="path148"
       style="fill:none;stroke:#000000;stroke-width:1;stroke-linecap:round"
       d="m 276.94536,61.091649 37.4574,8.262766"
       inkscape:connector-curvature="0" />
    <path
       id="path150"
       style="fill:#eeeeee;fill-opacity:0.4"
       d="m 369.11291,220.77536 -22.90897,-5.05352 V -74.791311 Z M 242.79877,34.957678 V 107.58597 L 281.57284,8.0856817 Z"
       inkscape:connector-curvature="0" />
    <path
       id="path152"
       style="fill:none;stroke:#000000;stroke-width:1;stroke-linecap:round"
       d="M 242.79877,34.957678 V 107.58597"
       inkscape:connector-curvature="0" />
    <path
       id="path154"
       style="fill:#eeeeee;fill-opacity:0.4"
       d="m 346.20394,215.72184 -12.92469,8.95734 V -65.833979 Z"
       inkscape:connector-curvature="0" />
    <path
       id="path156"
       style="fill:none;stroke:#000000;stroke-width:1;stroke-linecap:round"
       d="m 458.12318,216.2008 -22.90897,-5.05351 m 0,-242.094317 V 211.14729 m 0,0 -12.92468,8.95733"
       inkscape:connector-curvature="0" />
    <path
       id="path158"
       style="fill:#eeeeee;fill-opacity:0.4"
       d="m 356.18822,229.73269 12.92469,-8.95733 V -69.7378 Z"
       inkscape:connector-curvature="0" />
    <path
       id="path160"
       style="fill:#000000"
       d="m 309.96932,75.125215 4.43344,2.960906 22.03377,-3.871255 z m 7.17346,-14.733842 -5.48003,3.797886 24.77378,10.025607 z m -5.48003,3.797886 -1.69343,10.935956 26.46721,-0.910349 z"
       inkscape:connector-curvature="0" />
    <path
       id="path162"
       style="fill:#eeeeee;fill-opacity:0.4"
       d="m 422.28953,220.10462 12.92468,-8.95733 22.90897,5.05351 z"
       inkscape:connector-curvature="0" />
    <path
       id="path164"
       style="fill:none;stroke:#000000;stroke-width:1;stroke-linecap:round"
       d="M 458.12318,-25.893515 V 216.2008 m 0,0 -12.92469,8.95733"
       inkscape:connector-curvature="0" />
    <path
       id="path166"
       style="fill:#eeeeee;fill-opacity:0.4"
       d="m 333.27925,224.67918 22.90897,5.05351 V -60.780467 Z"
       inkscape:connector-curvature="0" />
    <path
       id="path168"
       style="fill:none;stroke:#000000;stroke-width:1;stroke-linecap:round"
       d="M 422.28953,-21.989694 V 220.10462 m 0,0 22.90896,5.05351"
       inkscape:connector-curvature="0" />
    <path
       id="path170"
       style="fill:#eeeeee;fill-opacity:0.4"
       d="m 445.19849,225.15813 -22.90896,-5.05351 35.83365,-3.90382 z"
       inkscape:connector-curvature="0" />
    <path
       id="path172"
       style="fill:none;stroke:#000000;stroke-width:1;stroke-linecap:round"
       d="m 365.95563,80.726512 37.45741,8.262766"
       inkscape:connector-curvature="0" />
    <path
       id="path174"
       style="fill:#eeeeee;fill-opacity:0.4"
       d="M 346.20394,-74.791311 V 215.72184 L 333.27925,-65.833979 Z"
       inkscape:connector-curvature="0" />
    <path
       id="path176"
       style="fill:none;stroke:#000000;stroke-width:1;stroke-linecap:round"
       d="M 445.19849,-16.936183 V 225.15813"
       inkscape:connector-curvature="0" />
    <path
       id="path178"
       style="fill:#eeeeee;fill-opacity:0.4"
       d="M 369.11291,-69.7378 V 220.77536 L 346.20394,-74.791311 Z m 89.01027,285.9386 -22.90897,-5.05351 V -30.947027 Z m -22.90897,-5.05351 -12.92468,8.95733 V -21.989694 Z M 333.27925,-65.833979 V 224.67918 l 22.90897,-285.459647 z m 22.90897,5.053512 V 229.73269 L 369.11291,-69.7378 Z m 89.01027,285.938597 12.92469,-8.95733 V -25.893515 Z"
       inkscape:connector-curvature="0" />
    <path
       id="path180"
       style="fill:#000000"
       d="m 398.97959,94.760079 4.43345,2.960906 22.03376,-3.871256 z m 7.17346,-14.733842 -5.48003,3.797885 24.77378,10.025607 z m -5.48003,3.797885 -1.69343,10.935957 26.46721,-0.91035 z"
       inkscape:connector-curvature="0" />
    <path
       id="path182"
       style="fill:#eeeeee;fill-opacity:0.4"
       d="m 422.28953,220.10462 22.90896,5.05351 V -16.936183 Z"
       inkscape:connector-curvature="0" />
    <path
       id="path184"
       style="fill:none;stroke:#000000;stroke-width:1;stroke-linecap:round"
       d="m 369.11291,-69.7378 -22.90897,-5.053511 m 0,0 -12.92469,8.957332 m 213.8542,239.426959 -22.90896,-5.05351 m 0,-117.608953 V 168.53947 m 0,0 -12.92469,8.95733 m -56.3339,-77.13542 37.45741,8.26276"
       inkscape:connector-curvature="0" />
    <path
       id="path186"
       style="fill:#eeeeee;fill-opacity:0.4"
       d="M 435.21421,-30.947027 V 211.14729 L 422.28953,-21.989694 Z m 22.90897,5.053512 V 216.2008 L 435.21421,-30.947027 Z"
       inkscape:connector-curvature="0" />
    <path
       id="path188"
       style="fill:none;stroke:#000000;stroke-width:1;stroke-linecap:round"
       d="m 369.11291,-69.7378 -12.92469,8.957333"
       inkscape:connector-curvature="0" />
    <path
       id="path190"
       style="fill:#eeeeee;fill-opacity:0.4"
       d="m 356.18822,-60.780467 12.92469,-8.957333 -22.90897,-5.053511 z M 511.2998,177.4968 l 12.92469,-8.95733 22.90896,5.05351 z"
       inkscape:connector-curvature="0" />
    <path
       id="path192"
       style="fill:none;stroke:#000000;stroke-width:1;stroke-linecap:round"
       d="M 547.13345,55.984028 V 173.59298 m 0,0 -12.92469,8.95734"
       inkscape:connector-curvature="0" />
    <path
       id="path194"
       style="fill:#eeeeee;fill-opacity:0.4"
       d="m 333.27925,-65.833979 22.90897,5.053512 -9.98428,-14.010844 z"
       inkscape:connector-curvature="0" />
    <path
       id="path196"
       style="fill:none;stroke:#000000;stroke-width:1;stroke-linecap:round"
       d="m 333.27925,-65.833979 22.90897,5.053512"
       inkscape:connector-curvature="0" />
    <path
       id="path198"
       style="fill:#eeeeee;fill-opacity:0.4"
       d="m 547.13345,173.59298 -22.90896,-5.05351 V 50.930517 Z M 422.28953,-21.989694 V 220.10462 l 22.90896,-237.040803 z"
       inkscape:connector-curvature="0" />
    <path
       id="path200"
       style="fill:none;stroke:#000000;stroke-width:1;stroke-linecap:round"
       d="M 511.2998,59.887849 V 177.4968 m 0,0 22.90896,5.05352"
       inkscape:connector-curvature="0" />
    <path
       id="path202"
       style="fill:#eeeeee;fill-opacity:0.4"
       d="M 445.19849,-16.936183 V 225.15813 l 12.92469,-251.051645 z m 89.01027,199.486503 -22.90896,-5.05352 35.83365,-3.90382 z"
       inkscape:connector-curvature="0" />
    <path
       id="path204"
       style="fill:#000000"
       d="m 487.98987,114.39494 4.43344,2.96091 22.03377,-3.87126 z m 7.17346,-14.73384 -5.48004,3.79789 24.77379,10.0256 z"
       inkscape:connector-curvature="0" />
    <path
       id="path206"
       style="fill:none;stroke:#000000;stroke-width:1;stroke-linecap:round"
       d="m 458.12318,-25.893515 -22.90897,-5.053512 m 0,0 -12.92468,8.957333"
       inkscape:connector-curvature="0" />
    <path
       id="path208"
       style="fill:#000000"
       d="m 489.68329,103.45899 -1.69342,10.93595 26.46721,-0.91035 z"
       inkscape:connector-curvature="0" />
    <path
       id="path210"
       style="fill:#eeeeee;fill-opacity:0.4"
       d="M 524.22449,168.53947 511.2998,177.4968 V 59.887849 Z"
       inkscape:connector-curvature="0" />
    <path
       id="path212"
       style="fill:none;stroke:#000000;stroke-width:1;stroke-linecap:round"
       d="M 534.20876,64.941361 V 182.55032"
       inkscape:connector-curvature="0" />
    <path
       id="path214"
       style="fill:#eeeeee;fill-opacity:0.4"
       d="m 534.20876,182.55032 12.92469,-8.95734 V 55.984028 Z M 524.22449,50.930517 V 168.53947 L 511.2998,59.887849 Z m 22.90896,5.053511 V 173.59298 L 524.22449,50.930517 Z"
       inkscape:connector-curvature="0" />
    <path
       id="path216"
       style="fill:none;stroke:#000000;stroke-width:1;stroke-linecap:round"
       d="m 458.12318,-25.893515 -12.92469,8.957332"
       inkscape:connector-curvature="0" />
    <path
       id="path218"
       style="fill:#eeeeee;fill-opacity:0.4"
       d="m 445.19849,-16.936183 12.92469,-8.957332 -22.90897,-5.053512 z m 66.10131,194.432983 22.90896,5.05352 V 64.941361 Z m -89.01027,-199.486494 22.90896,5.053511 -9.98428,-14.010844 z"
       inkscape:connector-curvature="0" />
    <path
       id="path220"
       style="fill:none;stroke:#000000;stroke-width:1;stroke-linecap:round"
       d="m 547.13345,55.984028 -22.90896,-5.053511 m 0,0 -12.92469,8.957332 m -89.01027,-81.877543 22.90896,5.053511"
       inkscape:connector-curvature="0" />
    <path
       id="path222"
       style="fill:#eeeeee;fill-opacity:0.4"
       d="M 511.2998,59.887849 V 177.4968 L 534.20876,64.941361 Z m 22.90896,5.053512 V 182.55032 L 547.13345,55.984028 Z"
       inkscape:connector-curvature="0" />
    <path
       id="path224"
       style="fill:none;stroke:#000000;stroke-width:1;stroke-linecap:round"
       d="m 547.13345,55.984028 -12.92469,8.957333"
       inkscape:connector-curvature="0" />
    <path
       id="path226"
       style="fill:#eeeeee;fill-opacity:0.4"
       d="m 534.20876,64.941361 12.92469,-8.957333 -22.90896,-5.053511 z m -22.90896,-5.053512 22.90896,5.053512 -9.98427,-14.010844 z"
       inkscape:connector-curvature="0" />
    <path
       id="path228"
       style="fill:none;stroke:#000000;stroke-width:1;stroke-linecap:round"
       d="m 511.2998,59.887849 22.90896,5.053512"
       inkscape:connector-curvature="0" />
  </g>
</svg>
